<svg width="80" height="80" viewBox="0 0 80 80" fill="none" xmlns="http://www.w3.org/2000/svg">
<g clip-path="url(#clip0_3076_26430)">
<path d="M7.29868 40.9395C6.85617 40.9395 6.40463 40.8401 5.99824 40.6324L2.90972 39.0972C1.46478 38.3747 0.877761 36.6137 1.5912 35.1688L10.3331 17.6219C11.0555 16.177 12.8165 15.59 14.2614 16.3034L17.35 17.8386C18.0454 18.1908 18.5692 18.7869 18.822 19.5274C19.0749 20.2679 19.0117 21.0626 18.6685 21.767L9.92666 39.3139C9.57445 40.0093 8.97842 40.5331 8.2379 40.7859C7.93085 40.8853 7.61477 40.9395 7.30772 40.9395H7.29868ZM3.8128 37.2639L6.90132 38.7992C7.11806 38.9075 7.35287 38.9256 7.57864 38.8443C7.80441 38.7721 7.98503 38.6095 8.0934 38.4018L16.8352 20.8549C16.9436 20.6382 16.9617 20.4034 16.8804 20.1776C16.8082 19.9518 16.6456 19.7712 16.4379 19.6628L13.3584 18.1276C12.9158 17.9109 12.383 18.0915 12.1663 18.525L3.42445 36.0719C3.20771 36.5144 3.38833 37.0472 3.82181 37.2639H3.8128Z" fill="#010101" stroke="black" stroke-width="0.7"/>
<path d="M55.0341 45.5351C54.4561 45.5351 53.8691 45.4087 53.3182 45.1287L40.7022 38.8433C40.1964 38.5904 39.9887 37.9763 40.2416 37.4796C40.4945 36.9829 41.1085 36.7662 41.6052 37.019L54.2213 43.3045C55.1154 43.7561 56.2171 43.3858 56.6596 42.4827C56.8764 42.0492 56.9125 41.5525 56.759 41.092C56.6054 40.6314 56.2803 40.2611 55.8469 40.0444L42.0658 33.1809C41.5601 32.9281 41.3524 32.314 41.6052 31.8173C41.8581 31.3116 42.4722 31.1129 42.9689 31.3567L56.75 38.2202C57.6711 38.6807 58.3574 39.4754 58.6916 40.4508C59.0167 41.4261 58.9444 42.4737 58.4839 43.3948C57.8065 44.7494 56.4429 45.5351 55.0251 45.5351H55.0341Z" fill="#010101" stroke="black" stroke-width="0.7"/>
<path d="M21.9744 24.3204C20.5024 24.3204 18.9581 24.1127 17.6757 23.4715C17.17 23.2186 16.9623 22.6045 17.2151 22.1078C17.468 21.6021 18.0821 21.4034 18.5788 21.6473C19.9063 22.3065 22.0105 22.46 24.512 22.0807C26.7065 21.7466 28.7204 21.584 30.7072 21.5931C31.2671 21.5931 31.7277 22.0536 31.7186 22.6136C31.7186 23.1735 31.2581 23.625 30.6982 23.625C30.644 23.625 30.5988 23.625 30.5446 23.625C28.7204 23.625 26.842 23.7785 24.8191 24.0856C23.9792 24.212 22.9858 24.3204 21.9653 24.3204H21.9744Z" fill="#010101" stroke="black" stroke-width="0.7"/>
<path d="M54.9803 51.8508C54.4024 51.8508 53.8153 51.7244 53.2645 51.4444L38.174 43.9308C37.6682 43.6779 37.4605 43.0638 37.7134 42.5671C37.9662 42.0704 38.5803 41.8627 39.077 42.1065L54.1675 49.6202C55.0616 50.0627 56.1634 49.7015 56.6059 48.7984C56.8226 48.3649 56.8587 47.8682 56.7052 47.4076C56.5517 46.947 56.2266 46.5768 55.7931 46.3601L40.7026 38.8464C40.1968 38.5936 39.9892 37.9794 40.242 37.4828C40.4949 36.9861 41.109 36.7693 41.6057 37.0222L56.6962 44.5358C58.6017 45.4841 59.3783 47.805 58.4301 49.7105C57.7528 51.0651 56.3891 51.8508 54.9713 51.8508H54.9803Z" fill="#010101" stroke="black" stroke-width="0.7"/>
<path d="M52.4517 56.9323C51.8737 56.9323 51.2868 56.8059 50.7359 56.5259L40.224 51.4686C39.7183 51.2248 39.5015 50.6107 39.7453 50.105C39.9892 49.5993 40.6033 49.3825 41.109 49.6264L51.639 54.6926C52.5511 55.1442 53.6438 54.783 54.0863 53.8799C54.303 53.4464 54.3392 52.9497 54.1857 52.4891C54.0321 52.0285 53.707 51.6583 53.2735 51.4415L38.183 43.9279C37.6773 43.6751 37.4696 43.0609 37.7225 42.5643C37.9753 42.0676 38.5894 41.8598 39.0861 42.1037L54.1766 49.6173C55.0978 50.0779 55.7841 50.8636 56.1182 51.8479C56.4433 52.8233 56.3711 53.8709 55.9105 54.792C55.2332 56.1466 53.8696 56.9323 52.4517 56.9323Z" fill="#010101" stroke="black" stroke-width="0.7"/>
<path d="M45.4097 59.7683C44.8227 59.7683 44.2357 59.6328 43.6939 59.3619L43.2152 59.118C42.7095 58.8652 42.5018 58.2511 42.7547 57.7544C43.0075 57.2487 43.6216 57.041 44.1183 57.2938L44.597 57.5376C45.0305 57.7544 45.5271 57.7905 45.9877 57.637C46.4483 57.4835 46.8185 57.1584 47.0353 56.7249C47.4868 55.8308 47.1166 54.7291 46.2225 54.2866L40.226 51.478C39.7203 51.2432 39.4946 50.6291 39.7384 50.1233C39.9822 49.6176 40.5873 49.3918 41.093 49.6357L47.1075 52.4533C49.0311 53.4106 49.8077 55.7315 48.8595 57.637C48.3989 58.5581 47.6133 59.2445 46.6289 59.5786C46.2225 59.7141 45.8161 59.7773 45.4007 59.7773L45.4097 59.7683Z" fill="#010101" stroke="black" stroke-width="0.7"/>
<path d="M16.2025 45.1488C15.9768 45.1488 15.751 45.0765 15.5704 44.923C14.4867 44.056 13.692 43.2072 13.1953 42.4034C12.1116 40.6243 9.77257 39.2968 9.74548 39.2878C9.25781 39.0169 9.0772 38.3937 9.35716 37.897C9.62808 37.4094 10.2512 37.2287 10.7389 37.4997C10.8563 37.5629 13.5745 39.0981 14.9382 41.3378C15.2994 41.9338 15.9587 42.6202 16.8437 43.3246C17.2862 43.6768 17.3585 44.3179 17.0063 44.7605C16.8076 45.0133 16.5096 45.1398 16.2115 45.1398L16.2025 45.1488Z" fill="#010101" stroke="black" stroke-width="0.7"/>
<path d="M74.1264 40.4699C73.133 40.4699 72.1667 39.9642 71.6158 39.0611L61.4832 22.2819C61.0768 21.6136 60.9594 20.8279 61.1491 20.0693C61.3387 19.3107 61.8083 18.6695 62.4766 18.2631L65.4297 16.4841C66.098 16.0777 66.8837 15.9603 67.6423 16.1499C68.4008 16.3396 69.042 16.8092 69.4484 17.4774L79.581 34.2567C80.4118 35.6384 79.9693 37.4446 78.5876 38.2754L75.6345 40.0545C75.1649 40.3435 74.6411 40.479 74.1264 40.479V40.4699ZM66.9379 18.1006C66.7753 18.1006 66.6218 18.1457 66.4773 18.227L63.5242 20.0061C63.3255 20.1325 63.181 20.3222 63.1178 20.557C63.0636 20.7827 63.0998 21.0266 63.2172 21.2252L73.3497 38.0045C73.6026 38.4199 74.1535 38.5554 74.5689 38.3025L77.522 36.5235C77.9374 36.2706 78.0728 35.7197 77.82 35.3043L67.6874 18.525C67.561 18.3263 67.3713 18.1818 67.1365 18.1186C67.0643 18.1006 66.992 18.0915 66.9198 18.0915L66.9379 18.1006Z" fill="#010101" stroke="black" stroke-width="0.7"/>
<path d="M42.527 33.29C42.1838 33.29 41.8407 33.1184 41.651 32.7933C41.362 32.3147 41.5156 31.6825 41.9942 31.3936L44.6222 29.8041C45.1008 29.5151 45.7329 29.6687 46.0219 30.1473C46.3109 30.6259 46.1574 31.2581 45.6788 31.5471L43.0508 33.1365C42.8882 33.2358 42.7076 33.281 42.527 33.281V33.29Z" fill="#010101" stroke="black" stroke-width="0.7"/>
<path d="M33.4692 32.7414C31.5456 32.7414 29.6762 31.7571 28.6377 30.0322C28.2042 29.3097 28.0959 28.4337 28.3397 27.6209C28.5835 26.8172 29.1705 26.1489 29.9381 25.7967L40.2242 21.0465C41.0731 20.6491 42.0123 20.5408 42.9335 20.7214L53.4273 22.7804C53.4905 22.7894 58.7465 23.846 61.546 22.1573C62.0247 21.8683 62.6568 22.0218 62.9458 22.5005C63.2348 22.9791 63.0813 23.6112 62.6026 23.9002C59.1258 26.0044 53.2828 24.8304 53.03 24.7762L42.5452 22.7262C42.0485 22.6269 41.5428 22.6901 41.0822 22.8978L30.7961 27.648C30.5522 27.7564 30.3716 27.9641 30.2903 28.226C30.2091 28.4879 30.2452 28.7498 30.3806 28.9846C31.2928 30.4927 33.2073 31.1159 34.8328 30.4295L39.9624 28.2621C40.1881 28.1718 40.432 28.1538 40.6668 28.226L45.435 29.7251C45.9679 29.8967 46.2659 30.4657 46.1033 31.0075C45.9317 31.5403 45.3628 31.8474 44.821 31.6758L40.4139 30.285L35.6276 32.3079C34.9232 32.6059 34.1917 32.7505 33.4602 32.7505L33.4692 32.7414Z" fill="#010101" stroke="black" stroke-width="0.7"/>
<path d="M62.682 47.6482C62.3388 47.6482 61.9956 47.4766 61.806 47.1515C61.517 46.6729 61.6705 46.0407 62.1491 45.7518L63.1877 45.1286C63.9553 44.5958 66.0324 42.9522 66.7639 41.4892C67.9469 39.1412 70.5298 37.3983 70.6381 37.326C71.1077 37.0099 71.7399 37.1364 72.056 37.606C72.372 38.0756 72.2456 38.7077 71.776 39.0238C71.7218 39.0599 69.5183 40.568 68.5881 42.4103C67.4593 44.668 64.452 46.7452 64.3166 46.8355C64.2985 46.8445 64.2804 46.8535 64.2624 46.8716L63.1967 47.5128C63.0342 47.6121 62.8536 47.6572 62.6729 47.6572L62.682 47.6482Z" fill="#010101" stroke="black" stroke-width="0.7"/>
<path d="M23.3834 50.2589C23.257 50.2589 23.1305 50.2589 23.0041 50.2408C21.9746 50.1415 21.0535 49.6448 20.4032 48.8501C19.0576 47.2064 19.2924 44.7681 20.9361 43.4225L23.7356 41.1287C24.5303 40.4785 25.5418 40.1714 26.5623 40.2708C27.5918 40.3701 28.5129 40.8668 29.1631 41.6615C29.8133 42.4562 30.1204 43.4587 30.0211 44.4882C29.9217 45.5177 29.425 46.4388 28.6303 47.0891L25.8307 49.3829C25.1354 49.9518 24.2775 50.2589 23.3924 50.2589H23.3834ZM26.1649 42.2937C25.7495 42.2937 25.3431 42.4382 25.018 42.7091L22.2184 45.0029C21.4418 45.6351 21.3334 46.791 21.9656 47.5677C22.5977 48.3443 23.7537 48.4527 24.5213 47.8206L27.3209 45.5267C27.7001 45.2197 27.9259 44.7862 27.9801 44.2985C28.0252 43.8108 27.8808 43.3413 27.5737 42.971C27.2667 42.5917 26.8332 42.3659 26.3455 42.3117C26.2823 42.3117 26.2281 42.3117 26.1649 42.3117V42.2937Z" fill="#010101" stroke="black" stroke-width="0.7"/>
<path d="M26.0569 55.4064C24.937 55.4064 23.8353 54.9278 23.0677 53.9976C21.7221 52.354 21.9569 49.9157 23.6005 48.5701L28.2423 44.7591C29.037 44.1088 30.0485 43.8018 31.069 43.9011C32.0985 44.0005 33.0196 44.4972 33.6699 45.2919C34.3201 46.0866 34.6271 47.089 34.5278 48.1185C34.4284 49.148 33.9318 50.0692 33.137 50.7194L28.4952 54.5304C27.7818 55.1174 26.9148 55.4064 26.0478 55.4064H26.0569ZM30.6987 45.915C30.2833 45.915 29.8769 46.0595 29.5518 46.3304L24.9099 50.1414C24.1333 50.7826 24.0249 51.9295 24.6571 52.7062C25.2892 53.4828 26.4452 53.5912 27.2218 52.9591L31.8637 49.148C32.243 48.841 32.4687 48.4075 32.5229 47.9198C32.5681 47.4322 32.4236 46.9626 32.1166 46.5923C31.8095 46.213 31.376 45.9873 30.8884 45.9331C30.8251 45.9331 30.771 45.9331 30.7078 45.9331L30.6987 45.915Z" fill="#010101" stroke="black" stroke-width="0.7"/>
<path d="M30.2739 59.2897C30.1475 59.2897 30.021 59.2897 29.8946 59.2717C28.8651 59.1723 27.944 58.6756 27.2937 57.8809C26.6435 57.0862 26.3365 56.0838 26.4358 55.0543C26.5351 54.0248 27.0318 53.1036 27.8265 52.4534L31.2492 49.6448C32.0439 48.9946 33.0464 48.6875 34.0759 48.7869C35.1054 48.8862 36.0265 49.3829 36.6767 50.1776C37.327 50.9724 37.634 51.9748 37.5347 53.0043C37.4353 54.0338 36.9386 54.955 36.1439 55.6052L32.7212 58.4137C32.0259 58.9827 31.168 59.2897 30.2829 59.2897H30.2739ZM33.6875 50.8098C33.2721 50.8098 32.8657 50.9543 32.5406 51.2252L29.118 54.0338C28.3413 54.666 28.2329 55.8219 28.8651 56.5895C29.1721 56.9688 29.6056 57.1946 30.0933 57.2488C30.5809 57.2939 31.0505 57.1494 31.4208 56.8424L34.8435 54.0338C35.6201 53.4017 35.7285 52.2457 35.0964 51.4781C34.7893 51.0988 34.3558 50.873 33.8682 50.8188C33.805 50.8188 33.7508 50.8098 33.6875 50.8098Z" fill="#010101" stroke="black" stroke-width="0.7"/>
<path d="M34.1916 63.425C34.0651 63.425 33.9387 63.425 33.8123 63.407C32.7828 63.3076 31.8616 62.8109 31.2114 62.0162C30.5612 61.2215 30.2541 60.2191 30.3535 59.1896C30.4528 58.1601 30.9495 57.2389 31.7442 56.5887L34.5347 54.2949C36.1783 52.9493 38.6167 53.1841 39.9623 54.8277C40.6125 55.6224 40.9195 56.6248 40.8202 57.6543C40.7208 58.6838 40.2242 59.605 39.4295 60.2552L36.6299 62.549C35.9345 63.118 35.0766 63.425 34.1916 63.425ZM36.9821 55.4508C36.5757 55.4508 36.1693 55.5863 35.8261 55.8662L33.0356 58.16C32.6563 58.4671 32.4305 58.9006 32.3764 59.3883C32.3312 59.8669 32.4757 60.3455 32.7828 60.7158C33.0898 61.0951 33.5233 61.3208 34.011 61.375C34.4896 61.4292 34.9682 61.2757 35.3385 60.9686L38.138 58.6748C38.5173 58.3678 38.7431 57.9343 38.7973 57.4466C38.8424 56.959 38.6979 56.4894 38.3909 56.1191C38.0297 55.6856 37.5059 55.4508 36.9821 55.4508Z" fill="#010101" stroke="black" stroke-width="0.7"/>
</g>
<defs>
<clipPath id="clip0_3076_26430">
<rect width="80" height="80" fill="white"/>
</clipPath>
</defs>
</svg>
