<svg width="80" height="80" viewBox="0 0 80 80" fill="none" xmlns="http://www.w3.org/2000/svg">
<path d="M48.4006 68.8398H32.3497C31.7431 68.8398 31.2578 69.2159 31.2578 69.677C31.2578 70.138 31.7431 70.5141 32.3497 70.5141H48.4006C49.0072 70.5141 49.4925 70.138 49.4925 69.677C49.4925 69.2159 49.0072 68.8398 48.4006 68.8398Z" fill="#231F20"/>
<path d="M60.4621 26.5481V11.0675C60.4621 7.88884 57.878 5.30469 54.6994 5.30469H26.0675C22.8888 5.30469 20.3047 7.88884 20.3047 11.0675V69.4353C20.3047 72.6139 22.8888 75.1981 26.0675 75.1981H54.6994C57.878 75.1981 60.4621 72.6139 60.4621 69.4353V26.5481ZM31.8788 7.4885H48.8881H31.8788ZM51.0719 7.4885H54.6994C56.6769 7.4885 58.2784 9.08992 58.2784 11.0675V69.4353C58.2784 71.4128 56.6769 73.0143 54.6994 73.0143H26.0675C24.0899 73.0143 22.4885 71.4128 22.4885 69.4353V11.0675C22.4885 9.08992 24.0899 7.4885 26.0675 7.4885H29.695" fill="#231F20"/>
<path d="M31.8788 7.4885H48.8881M51.0719 7.4885H54.6994C56.6769 7.4885 58.2784 9.08992 58.2784 11.0675V69.4353C58.2784 71.4129 56.6769 73.0143 54.6994 73.0143H26.0675C24.0899 73.0143 22.4885 71.4129 22.4885 69.4353V11.0675C22.4885 9.08992 24.0899 7.4885 26.0675 7.4885H29.695M60.4621 26.5481V11.0675C60.4621 7.88884 57.878 5.30469 54.6994 5.30469H26.0675C22.8888 5.30469 20.3047 7.88884 20.3047 11.0675V69.4353C20.3047 72.6139 22.8888 75.1981 26.0675 75.1981H54.6994C57.878 75.1981 60.4621 72.6139 60.4621 69.4353V26.5481Z" stroke="black" stroke-width="0.7"/>
<path d="M54.698 75.5H26.0661C22.7176 75.5 20 72.7824 20 69.4339V11.0661C20 7.7176 22.7176 5 26.0661 5H54.698C58.0465 5 60.7641 7.7176 60.7641 11.0661V69.4339C60.7641 72.7824 58.0465 75.5 54.698 75.5ZM26.0661 5.60661C23.0573 5.60661 20.6066 8.0573 20.6066 11.0661V69.4339C20.6066 72.4427 23.0573 74.8934 26.0661 74.8934H54.698C57.7068 74.8934 60.1575 72.4427 60.1575 69.4339V11.0661C60.1575 8.0573 57.7068 5.60661 54.698 5.60661H26.0661ZM54.698 73.3162H26.0661C23.9308 73.3162 22.1838 71.5692 22.1838 69.4339V11.0661C22.1838 8.93082 23.9308 7.18381 26.0661 7.18381H29.6936V7.79042H26.0661C24.2584 7.79042 22.7904 9.25839 22.7904 11.0661V69.4339C22.7904 71.2416 24.2584 72.7096 26.0661 72.7096H54.698C56.5057 72.7096 57.9737 71.2416 57.9737 69.4339V11.0661C57.9737 9.25839 56.5057 7.79042 54.698 7.79042H51.0705V7.18381H54.698C56.8332 7.18381 58.5803 8.91869 58.5803 11.0661V69.4339C58.5803 71.5692 56.8332 73.3162 54.698 73.3162ZM48.8867 7.79042H31.8774V7.18381H48.8867V7.79042Z" fill="#231F20" stroke="black" stroke-width="0.7"/>
<path d="M40.3807 35.0896C36.183 35.0896 32.7617 31.6683 32.7617 27.4706C32.7617 23.2729 36.183 19.8516 40.3807 19.8516C41.7153 19.8516 43.0376 20.2034 44.1902 20.8707C44.542 21.0769 44.6633 21.5258 44.4571 21.8898C44.2509 22.2416 43.802 22.3629 43.438 22.1567C42.516 21.6229 41.4483 21.3317 40.3686 21.3317C36.9837 21.3317 34.2297 24.0857 34.2297 27.4706C34.2297 30.8555 36.9837 33.6095 40.3686 33.6095C43.7534 33.6095 46.5074 30.8555 46.5074 27.4706C46.5074 27.0338 46.4589 26.5971 46.374 26.1724C46.2891 25.7721 46.5439 25.3838 46.9442 25.2868C47.3446 25.2019 47.7328 25.4566 47.8298 25.857C47.939 26.3787 47.9997 26.9246 47.9997 27.4585C47.9997 31.6562 44.5784 35.0774 40.3807 35.0774V35.0896Z" fill="#231F20"/>
<path d="M40.3802 35.2487C36.0976 35.2487 32.6035 31.7668 32.6035 27.472C32.6035 23.1772 36.0854 19.6953 40.3802 19.6953C41.7512 19.6953 43.0857 20.0593 44.2625 20.7387C44.4688 20.86 44.6144 21.0541 44.675 21.2846C44.7357 21.5151 44.6993 21.7578 44.5901 21.964C44.4688 22.1703 44.2746 22.3158 44.0441 22.3765C43.8136 22.4372 43.571 22.4008 43.3647 22.2916C42.4548 21.7699 41.4236 21.4908 40.3681 21.4908C37.0681 21.4908 34.3869 24.1721 34.3869 27.472C34.3869 30.772 37.0681 33.4532 40.3681 33.4532C43.668 33.4532 46.3492 30.772 46.3492 27.472C46.3492 27.0474 46.3007 26.6228 46.2158 26.2103C46.1066 25.725 46.4221 25.2518 46.9073 25.1426C47.1379 25.0941 47.3805 25.1426 47.5746 25.264C47.7808 25.3974 47.9143 25.5915 47.9628 25.8342C48.072 26.3801 48.1327 26.9261 48.1327 27.472C48.1327 31.7547 44.6507 35.2487 40.3559 35.2487H40.3802ZM40.3802 19.9986C36.2553 19.9986 32.9068 23.3471 32.9068 27.472C32.9068 31.597 36.2553 34.9454 40.3802 34.9454C44.5052 34.9454 47.8536 31.597 47.8536 27.472C47.8536 26.9503 47.793 26.4165 47.6838 25.8948C47.6474 25.7371 47.5625 25.6037 47.429 25.5187C47.2956 25.4338 47.15 25.4095 46.9922 25.4338C46.6768 25.5066 46.4706 25.8221 46.5434 26.1375C46.6404 26.5742 46.6889 27.0231 46.6889 27.4599C46.6889 30.9297 43.8622 33.7443 40.4045 33.7443C36.9468 33.7443 34.12 30.9176 34.12 27.4599C34.12 24.0022 36.9468 21.1754 40.4045 21.1754C41.5085 21.1754 42.6004 21.4666 43.5467 22.0126C43.6802 22.0854 43.85 22.1096 43.9956 22.0732C44.1412 22.0368 44.2746 21.9397 44.3474 21.7942C44.4324 21.6607 44.4445 21.503 44.4081 21.3453C44.3717 21.1876 44.2747 21.0662 44.1291 20.9813C43.0008 20.3262 41.7027 19.9865 40.3924 19.9865L40.3802 19.9986Z" fill="#231F20"/>
<path d="M40.3845 30.9649C40.1783 30.9649 39.9842 30.88 39.8386 30.7223L36.9996 27.6285C36.7206 27.3252 36.7449 26.8521 37.0482 26.5852C37.3515 26.3062 37.8246 26.3304 38.0915 26.6337L40.336 29.0844L46.3657 21.4048C46.6205 21.0772 47.0815 21.0287 47.4091 21.2834C47.7366 21.5382 47.7851 21.9992 47.5304 22.3268L40.9669 30.698C40.8334 30.8678 40.6272 30.977 40.4088 30.977H40.3845V30.9649Z" fill="#231F20"/>
<path d="M40.3822 31.1212C40.1275 31.1212 39.897 31.012 39.7271 30.8301L36.8882 27.7363C36.5606 27.3724 36.5849 26.8022 36.9488 26.4746C37.3128 26.147 37.883 26.1713 38.2106 26.5231L40.3337 28.8404L46.2542 21.2942C46.5575 20.9059 47.1156 20.8331 47.5038 21.1486C47.8921 21.4519 47.9649 22.01 47.6615 22.3982L41.098 30.7694C40.9403 30.9756 40.6977 31.097 40.4308 31.1091H40.3944L40.3822 31.1212ZM37.5433 26.5353C37.3977 26.5353 37.2521 26.5838 37.1429 26.693C36.9003 26.9114 36.8882 27.2875 37.1066 27.5301L39.9455 30.6238C40.0547 30.7451 40.2124 30.8179 40.3822 30.8179C40.5764 30.8179 40.7341 30.733 40.8433 30.5874L47.4068 22.2162C47.613 21.9614 47.5645 21.5853 47.3097 21.3912C47.0549 21.185 46.6788 21.2335 46.4847 21.4883L40.3459 29.3135L37.9801 26.7294C37.8587 26.6081 37.701 26.5353 37.5433 26.5353Z" fill="#231F20"/>
<path d="M40.3807 60.6501C36.183 60.6501 32.7617 57.2288 32.7617 53.0311C32.7617 48.8334 36.183 45.4121 40.3807 45.4121C41.7153 45.4121 43.0376 45.7639 44.1902 46.4312C44.542 46.6375 44.6633 47.0863 44.4571 47.4503C44.2509 47.8021 43.802 47.9235 43.438 47.7172C42.516 47.1834 41.4483 46.8922 40.3686 46.8922C36.9837 46.8922 34.2297 49.6462 34.2297 53.0311C34.2297 56.416 36.9837 59.17 40.3686 59.17C43.7534 59.17 46.5074 56.416 46.5074 53.0311C46.5074 52.5943 46.4589 52.1576 46.374 51.733C46.2891 51.3326 46.5439 50.9444 46.9442 50.8473C47.3446 50.7624 47.7328 51.0172 47.8298 51.4175C47.939 51.9392 47.9997 52.4852 47.9997 53.019C47.9997 57.2167 44.5784 60.638 40.3807 60.638V60.6501Z" fill="#231F20"/>
<path d="M40.3802 60.8073C36.0976 60.8073 32.6035 57.3254 32.6035 53.0306C32.6035 48.7358 36.0854 45.2539 40.3802 45.2539C41.7512 45.2539 43.0857 45.6179 44.2625 46.2973C44.4688 46.4186 44.6144 46.6127 44.675 46.8432C44.7357 47.0737 44.6993 47.3164 44.5901 47.5227C44.4688 47.7289 44.2746 47.8745 44.0441 47.9351C43.8136 47.9958 43.571 47.9594 43.3647 47.8502C42.4548 47.3285 41.4236 47.0495 40.3681 47.0495C37.0681 47.0495 34.3869 49.7307 34.3869 53.0306C34.3869 56.3306 37.0681 59.0118 40.3681 59.0118C43.668 59.0118 46.3492 56.3306 46.3492 53.0306C46.3492 52.606 46.3007 52.1814 46.2158 51.7689C46.1673 51.5384 46.2158 51.2957 46.3371 51.1016C46.4706 50.8954 46.6647 50.7619 46.8952 50.7134C47.1257 50.6648 47.3562 50.7134 47.5625 50.8347C47.7687 50.9682 47.9022 51.1623 47.9507 51.3928C48.0599 51.9387 48.1206 52.4847 48.1206 53.0306C48.1206 57.3133 44.6386 60.8073 40.3438 60.8073H40.3802ZM40.3802 45.5572C36.2553 45.5572 32.9068 48.9057 32.9068 53.0306C32.9068 57.1556 36.2553 60.504 40.3802 60.504C44.5052 60.504 47.8536 57.1556 47.8536 53.0306C47.8536 52.5089 47.793 51.9751 47.6838 51.4535C47.6474 51.2957 47.5625 51.1623 47.429 51.0774C47.2956 50.9924 47.1378 50.9682 46.9922 50.9924C46.8345 51.0288 46.7011 51.1137 46.6161 51.2472C46.5312 51.3807 46.507 51.5384 46.5312 51.6961C46.6283 52.1328 46.6768 52.5818 46.6768 53.0185C46.6768 56.4883 43.85 59.303 40.3924 59.303C36.9347 59.303 34.1079 56.4762 34.1079 53.0185C34.1079 49.5609 36.9347 46.734 40.3924 46.734C41.4964 46.734 42.5883 47.0252 43.5346 47.5712C43.6681 47.6439 43.8379 47.6682 43.9835 47.6318C44.1291 47.5954 44.2625 47.4984 44.3353 47.3528C44.4203 47.2193 44.4324 47.0616 44.396 46.9039C44.3596 46.7462 44.2625 46.6248 44.1169 46.5399C42.9886 45.8848 41.6905 45.5451 40.3802 45.5451V45.5572Z" fill="#231F20"/>
<path d="M40.3845 56.5255C40.1783 56.5255 39.9842 56.4406 39.8386 56.2828L36.9996 53.1891C36.7206 52.8858 36.7449 52.4127 37.0482 52.1458C37.3515 51.8667 37.8246 51.891 38.0915 52.1943L40.336 54.645L46.3657 46.9653C46.6205 46.6378 47.0815 46.5892 47.4091 46.844C47.7366 47.0988 47.7851 47.5598 47.5304 47.8874L40.9669 56.2586C40.8334 56.4284 40.6272 56.5376 40.4088 56.5376H40.3845V56.5255Z" fill="#231F20"/>
<path d="M40.3822 56.6704C40.1275 56.6704 39.897 56.5612 39.7271 56.3792L36.8882 53.2855C36.5606 52.9215 36.5849 52.3513 36.9488 52.0238C37.1187 51.866 37.3613 51.7932 37.5918 51.7932C37.8345 51.7932 38.0529 51.9024 38.2106 52.0844L40.3337 54.4016L46.2542 46.8554C46.5575 46.4672 47.1156 46.4066 47.5038 46.7099C47.6858 46.8555 47.8071 47.0738 47.8435 47.3043C47.8678 47.547 47.8071 47.7775 47.6615 47.9595L41.098 56.3307C40.9403 56.5369 40.6977 56.6582 40.4308 56.6704H40.3944H40.3822ZM37.5433 52.0965C37.3977 52.0965 37.2521 52.1451 37.1429 52.2543C36.9003 52.4726 36.8882 52.8487 37.1066 53.0914L39.9455 56.1851C40.0547 56.3064 40.2124 56.3792 40.3822 56.3792C40.5764 56.3792 40.7341 56.2943 40.8433 56.1487L47.4068 47.7775C47.5038 47.6562 47.5523 47.4984 47.5281 47.3407C47.5038 47.183 47.431 47.0496 47.3097 46.9525C47.0549 46.7584 46.6788 46.7948 46.4847 47.0496L40.3459 54.8748L37.9801 52.2907C37.8709 52.1693 37.7253 52.1087 37.5676 52.0965C37.5676 52.0965 37.5555 52.0965 37.5433 52.0965Z" fill="#231F20"/>
<path d="M49.1483 8.25096C49.1483 9.35765 48.3557 9.58989 47.3828 9.58989H34.0875C33.1147 9.58989 32.322 9.35765 32.322 8.25096V6.76172H30.1602V8.25096C30.1602 10.7103 31.9257 12.0492 34.0875 12.0492H47.3828C49.5447 12.0492 51.3102 10.7103 51.3102 8.25096V6.76172H49.1483V8.25096Z" fill="#231F20"/>
</svg>
