<svg width="80" height="80" viewBox="0 0 80 80" fill="none" xmlns="http://www.w3.org/2000/svg">
<path d="M9.47749 67.0954C9.06104 67.0954 8.65407 66.9723 8.30388 66.7357C7.74547 66.3571 7.39528 65.723 7.38581 65.0416L7.23438 57.1102C7.23438 56.9209 7.28169 56.7411 7.37634 56.5897L9.2314 53.6367C9.34497 53.4569 9.51534 53.3243 9.7141 53.2486L13.1498 52.0087L12.7806 48.3744C12.7333 47.9106 13.0267 47.4847 13.481 47.3616L17.3615 46.3206L16.7747 42.0615C16.7179 41.6166 16.9735 41.1907 17.3994 41.0393L21.6774 39.5155L21.0054 35.37C20.9675 35.1428 21.0149 34.9062 21.1379 34.7169L22.9078 31.8965C23.4378 31.0541 23.523 30.0035 23.116 29.1044C21.2042 24.7885 21.5638 19.8385 24.0719 15.8444C28.2175 9.2476 36.9627 7.25058 43.569 11.3961C50.1375 15.5227 52.1629 23.9651 48.1878 30.6187C45.6986 34.7832 41.307 37.3575 36.4517 37.4995C35.4863 37.5279 34.5966 38.0485 34.0666 38.9003L19.5289 62.0318C18.7907 63.2054 17.6644 64.1235 16.3677 64.6156L10.2441 66.944C10.0075 67.0386 9.75196 67.0765 9.50588 67.0765L9.47749 67.0954ZM9.1273 57.3563L9.27874 65.0037C9.27874 65.0889 9.32606 65.1362 9.36391 65.1646C9.40177 65.193 9.45856 65.2119 9.54375 65.1835L15.6768 62.8552C16.5949 62.505 17.3804 61.8614 17.901 61.0286L32.4387 37.897C33.3094 36.5152 34.7764 35.6539 36.376 35.6066C40.5877 35.4835 44.383 33.2594 46.541 29.6439C49.9861 23.8799 48.2351 16.5638 42.5469 12.9956C36.8302 9.39905 29.2586 11.1311 25.662 16.8477C23.4946 20.3023 23.1823 24.5992 24.8386 28.3283C25.4916 29.8048 25.3686 31.5179 24.4978 32.8997L22.9173 35.4173L23.6649 39.9887C23.7407 40.443 23.4757 40.8784 23.0498 41.0298L18.7528 42.5631L19.3491 46.8884C19.4153 47.3616 19.1125 47.8065 18.6582 47.9295L14.7493 48.9801L15.1089 52.5482C15.1563 52.9836 14.9007 53.3812 14.4938 53.5326L10.67 54.9144L9.13677 57.3468L9.1273 57.3563Z" fill="#010101" stroke="black" stroke-width="0.7"/>
<path d="M9.47973 67.3315C9.01596 67.3315 8.56165 67.1896 8.1736 66.934C7.54894 66.5081 7.17037 65.8078 7.15144 65.0506L7 57.1192C7 56.8826 7.05679 56.6649 7.17983 56.4662L9.03489 53.5132C9.17686 53.2955 9.38508 53.1157 9.63116 53.0305L12.887 51.8474L12.5368 48.4023C12.48 47.825 12.8397 47.295 13.4075 47.1435L17.0893 46.1592L16.5309 42.1083C16.4552 41.5594 16.7769 41.0199 17.307 40.8306L21.3957 39.3731L20.7521 35.4169C20.7048 35.1329 20.7616 34.8395 20.9225 34.5934L22.7018 31.773C23.194 30.9969 23.2697 30.0315 22.9006 29.1986C20.9603 24.8165 21.32 19.7718 23.866 15.721C28.0872 9.01057 36.9745 6.98514 43.6849 11.1969C50.3669 15.3897 52.4207 23.9836 48.3793 30.7413C45.8428 34.972 41.385 37.5937 36.4444 37.7357C35.5642 37.7641 34.7408 38.2468 34.2487 39.0323L19.711 62.1639C18.9443 63.3848 17.7802 64.3407 16.4362 64.8423L10.3126 67.1707C10.0476 67.2748 9.77314 67.3221 9.4892 67.3221L9.47973 67.3315ZM36.0564 9.47433C31.4282 9.47433 26.9041 11.7742 24.2635 15.9765C21.8027 19.8949 21.4525 24.7691 23.3265 29.0093C23.7618 29.9842 23.6767 31.1104 23.0993 32.0285L21.3294 34.849C21.2348 34.9909 21.2064 35.1708 21.2348 35.3411L21.9446 39.6854L17.4868 41.2755C17.1745 41.389 16.9757 41.7108 17.023 42.0421L17.6382 46.5094L13.559 47.6073C13.2182 47.702 13.0006 48.0143 13.0384 48.3645L13.4265 52.1787L9.82047 53.4848C9.66903 53.5416 9.54599 53.6457 9.46081 53.7782L7.60572 56.7312C7.53 56.8448 7.49215 56.9867 7.49215 57.1287L7.64359 65.0601C7.65305 65.6658 7.95593 66.2242 8.45756 66.5554C8.94972 66.8867 9.59329 66.9624 10.1517 66.7542L16.2848 64.4259C17.5341 63.9527 18.6131 63.063 19.3324 61.9368L33.87 38.8052C34.4474 37.8871 35.4128 37.3192 36.4539 37.2908C41.2335 37.1489 45.5399 34.6218 47.9913 30.5236C51.9096 23.9836 49.9126 15.6736 43.4577 11.6228C41.1673 10.1842 38.6118 9.49325 36.0848 9.49325L36.0564 9.47433ZM9.47025 65.4386C9.38507 65.4386 9.29989 65.4103 9.23364 65.3629C9.1106 65.2778 9.04436 65.1547 9.04436 65.0128L8.89292 57.2991L10.5019 54.7341L14.4013 53.3239C14.7042 53.2103 14.903 52.9075 14.8651 52.5857L14.4865 48.8187L18.5847 47.7209C18.9254 47.6262 19.1526 47.2949 19.1053 46.9353L18.49 42.4207L22.9668 40.8306C23.2886 40.7171 23.4874 40.3858 23.4306 40.045L22.6734 35.3885L24.3013 32.7951C25.1247 31.4796 25.2478 29.8517 24.6231 28.4509C22.9384 24.6461 23.2508 20.264 25.4655 16.7432C29.1283 10.9129 36.8514 9.15253 42.6722 12.8153C48.474 16.4592 50.2628 23.9173 46.7419 29.7854C44.5367 33.4671 40.6657 35.7387 36.3782 35.8617C34.8639 35.909 33.4631 36.723 32.6397 38.0386L18.102 61.1701C17.5531 62.0408 16.7202 62.7223 15.7548 63.0914L9.62169 65.4197C9.5649 65.4387 9.51758 65.4481 9.47025 65.4481V65.4386ZM9.37563 57.4221L9.51759 64.937L15.5939 62.6371C16.4646 62.3059 17.2123 61.6907 17.7045 60.9051L32.2422 37.7735C33.1508 36.316 34.6935 35.4263 36.3687 35.3695C40.4953 35.2465 44.2244 33.0696 46.335 29.5299C49.7138 23.8795 47.9913 16.7053 42.4166 13.2034C36.8136 9.68255 29.3838 11.3767 25.8535 16.9798C23.724 20.3681 23.4211 24.5799 25.049 28.2427C25.74 29.7949 25.598 31.5837 24.6894 33.0318L23.1561 35.4736L23.8849 39.9599C23.9795 40.5278 23.6483 41.0767 23.1182 41.266L19.0011 42.733L19.569 46.869C19.6542 47.4558 19.2756 48.0143 18.7077 48.1752L14.9976 49.1689L15.3383 52.5383C15.3951 53.0778 15.0733 53.589 14.5622 53.7688L10.8237 55.1222L9.37563 57.4316V57.4221Z" fill="#231F20" stroke="black" stroke-width="0.7"/>
<path d="M38.2927 22.4476C38.2927 22.4476 38.217 22.4476 38.1697 22.4287C37.7343 22.3151 37.3273 22.1353 36.9487 21.8987C34.8949 20.6115 34.2797 17.8951 35.5669 15.8413C36.8541 13.7875 39.5799 13.1723 41.6243 14.4595C43.1954 15.4533 43.9809 17.3367 43.574 19.1445C43.5172 19.4 43.2711 19.5609 43.0061 19.5041C42.7506 19.4474 42.5897 19.1918 42.6465 18.9363C42.9682 17.5166 42.3531 16.0401 41.1132 15.264C39.5042 14.2513 37.3652 14.7434 36.3525 16.3524C35.3398 17.9614 35.8319 20.1004 37.4409 21.1037C37.7343 21.293 38.0561 21.4349 38.3968 21.5201C38.6524 21.5863 38.8038 21.8419 38.7376 22.0974C38.6808 22.3057 38.4915 22.4476 38.2832 22.4476H38.2927Z" fill="#010101" stroke="black" stroke-width="0.7"/>
<path d="M38.2912 22.6857C38.2249 22.6857 38.1681 22.6857 38.1114 22.6573C37.6571 22.5343 37.2217 22.345 36.8242 22.0989C35.7831 21.4459 35.0543 20.4142 34.7798 19.2122C34.5054 18.0007 34.7136 16.7609 35.3761 15.7198C36.739 13.5618 39.5973 12.8993 41.7647 14.2622C43.421 15.3033 44.2539 17.2909 43.8185 19.2027C43.7333 19.5908 43.3548 19.8274 42.9762 19.7422C42.7869 19.7044 42.6355 19.5908 42.5314 19.4299C42.4272 19.269 42.3988 19.0797 42.4367 18.8904C42.7396 17.5653 42.1622 16.193 41.0075 15.4642C39.5121 14.5177 37.5151 14.9815 36.5781 16.4769C35.6316 17.9818 36.0859 19.9599 37.5908 20.9064C37.8653 21.0862 38.1682 21.2092 38.4805 21.2944C38.6603 21.3417 38.8212 21.4553 38.9159 21.6257C39.0105 21.7866 39.0389 21.9853 38.9916 22.1652C38.9064 22.4775 38.6319 22.6952 38.3101 22.6952L38.2912 22.6857ZM39.3039 14.0256C37.9221 14.0256 36.5592 14.7165 35.7736 15.9658C35.1868 16.9028 34.9975 18.0197 35.2436 19.1081C35.4897 20.1965 36.1427 21.1146 37.0797 21.7014C37.4394 21.9285 37.8274 22.0989 38.2344 22.203C38.3574 22.2409 38.4899 22.1557 38.5278 22.0326C38.5467 21.9759 38.5278 21.9096 38.4994 21.8528C38.471 21.796 38.4142 21.7582 38.3575 21.7392C37.9978 21.6446 37.6476 21.4932 37.3353 21.2944C35.6127 20.2154 35.0922 17.9345 36.1711 16.2119C37.2501 14.4894 39.5311 13.9688 41.2536 15.0478C42.5692 15.8806 43.2317 17.4518 42.891 18.9756C42.8815 19.0418 42.891 19.0986 42.9194 19.1554C42.9573 19.2122 43.0046 19.2501 43.0708 19.2595C43.2033 19.2879 43.3264 19.2122 43.3548 19.0797C43.7428 17.3666 42.9951 15.5873 41.5092 14.6503C40.8277 14.2149 40.0611 14.0161 39.3039 14.0161V14.0256Z" fill="#231F20" stroke="black" stroke-width="0.7"/>
<path d="M66.7426 71.6839H59.559C58.4706 71.6839 57.5904 70.8037 57.5904 69.7153V59.9856C57.5904 59.9856 57.5525 59.9099 57.5146 59.9099H50.4919C50.4919 59.9099 50.4162 59.9477 50.4162 59.9856V69.7153C50.4162 70.8037 49.536 71.6839 48.4475 71.6839H41.7087C40.6203 71.6839 39.7401 70.8037 39.7401 69.7153V55.2628L39.6644 55.1871H38.4245C37.1468 55.1871 36.0205 54.411 35.5662 53.2184C35.1119 52.0164 35.4337 50.6914 36.3991 49.849L44.0843 43.0345C44.4724 42.6843 45.0687 42.7222 45.4189 43.1102C45.769 43.4983 45.7312 44.0945 45.3432 44.4447L37.6579 51.2592C37.0994 51.7514 37.2793 52.3666 37.3455 52.5464C37.4118 52.7263 37.6863 53.2942 38.434 53.2942H39.6833C40.2039 53.2563 40.7055 53.4929 41.0746 53.8715C41.4437 54.2406 41.6519 54.7422 41.6519 55.2628V69.7153C41.6519 69.7153 41.6898 69.791 41.7277 69.791H48.4665C48.4665 69.791 48.5422 69.7531 48.5422 69.7153V59.9856C48.5422 58.8972 49.4224 58.017 50.5108 58.017H57.5336C58.622 58.017 59.5022 58.8972 59.5022 59.9856V69.7153C59.5022 69.7153 59.5401 69.791 59.5779 69.791H66.7616C66.7616 69.791 66.8373 69.7531 66.8373 69.7153V55.2628C66.8373 54.7327 67.0455 54.2406 67.4146 53.8715C67.7837 53.5024 68.2759 53.2942 68.8059 53.2942H70.5096C71.2573 53.2942 71.5318 52.7168 71.598 52.5464C71.6643 52.3666 71.8441 51.7609 71.2857 51.2592L67.443 47.852C67.0266 47.4829 66.7805 46.9434 66.7805 46.3755V38.624C66.7805 38.624 66.7426 38.5483 66.7048 38.5483H62.8054C62.8054 38.5483 62.7297 38.5861 62.7297 38.624V39.3149C62.7297 40.1005 62.2848 40.7819 61.575 41.1132C60.8557 41.435 60.0512 41.3119 59.4644 40.7914L56.9089 38.5293C55.5271 37.2989 53.4354 37.2989 52.0441 38.5293L49.8956 40.4317C49.5076 40.7819 48.9113 40.7441 48.5611 40.356C48.2109 39.968 48.2488 39.3717 48.6368 39.0215L50.7853 37.1191C52.8865 35.2546 56.0571 35.2546 58.1582 37.1191L60.7137 39.3812L60.8367 39.3244V38.6334C60.8367 37.545 61.7169 36.6648 62.8054 36.6648H66.7048C67.7932 36.6648 68.6734 37.545 68.6734 38.6334V46.3849L72.5445 49.8396C73.5004 50.6914 73.8317 52.0164 73.3774 53.209C72.9231 54.411 71.7967 55.1776 70.519 55.1776H68.8154L68.7397 55.2533V69.7058C68.7397 70.7942 67.8595 71.6744 66.771 71.6744L66.7426 71.6839Z" fill="#010101" stroke="black" stroke-width="0.7"/>
<path d="M66.739 71.9205H59.5554C58.3439 71.9205 57.3501 70.9362 57.3501 69.7153V60.1465H50.6586V69.7153C50.6586 70.9267 49.6743 71.9205 48.4533 71.9205H41.7145C40.5031 71.9205 39.5093 70.9362 39.5093 69.7153V55.4237H38.4303C37.0485 55.4237 35.837 54.5908 35.3449 53.3036C34.8527 52.0164 35.2029 50.5873 36.2345 49.6692L43.9198 42.8547C44.1564 42.6464 44.4593 42.5423 44.7716 42.5613C45.0839 42.5802 45.3773 42.7221 45.5856 42.9588C45.7938 43.1954 45.8979 43.4983 45.879 43.8106C45.86 44.1229 45.7181 44.4163 45.4815 44.6245L37.7962 51.4391C37.3608 51.8177 37.4744 52.2814 37.5406 52.4613C37.6069 52.6411 37.834 53.0575 38.4019 53.0575H39.6513C40.1907 53.0197 40.7586 53.2563 41.2129 53.7011C41.6294 54.1176 41.8565 54.6665 41.8565 55.2628V69.5449H48.2641V59.9762C48.2641 58.7647 49.2484 57.7709 50.4693 57.7709H57.4921C58.7035 57.7709 59.6973 58.7552 59.6973 59.9762V69.5449H66.5497V55.2533C66.5497 54.6665 66.7769 54.1081 67.1933 53.6917C67.6097 53.2752 68.1587 53.0481 68.7455 53.0481H70.4491C71.0265 53.0481 71.2441 52.6316 71.3199 52.4518C71.3767 52.3098 71.5186 51.8271 71.0643 51.4296L67.2217 48.0224C66.7485 47.6059 66.4835 47.0002 66.4835 46.3755V38.7849H62.9153V39.3149C62.9153 40.1951 62.4137 40.9617 61.6186 41.3214C60.8141 41.681 59.9055 41.5485 59.2525 40.9617L56.697 38.6997C55.4004 37.545 53.4412 37.5545 52.154 38.6997L50.0056 40.6021C49.7689 40.8103 49.4566 40.9144 49.1443 40.8955C48.8319 40.8765 48.5385 40.7346 48.3303 40.498C48.1221 40.2614 48.018 39.9585 48.0369 39.6462C48.0558 39.3338 48.1978 39.0404 48.4344 38.8322L50.5829 36.9298C52.7787 34.9895 56.0818 34.9895 58.2682 36.9298L60.5491 38.9552V38.624C60.5491 37.4125 61.5335 36.4187 62.7544 36.4187H66.6538C67.8653 36.4187 68.8591 37.403 68.8591 38.624V46.2714L72.6449 49.6597C73.6766 50.5778 74.0267 51.9975 73.5346 53.2942C73.0424 54.5814 71.8404 55.4237 70.4586 55.4237H68.9253V69.7058C68.9253 70.9173 67.941 71.9111 66.7201 71.9111L66.739 71.9205ZM50.4977 59.6828H57.5205C57.6908 59.6828 57.8328 59.8247 57.8328 59.9951V69.7247C57.8328 70.6807 58.6089 71.4568 59.5648 71.4568H66.7485C67.7044 71.4568 68.4805 70.6807 68.4805 69.7247V55.1776L68.6887 54.9694H70.487C71.6701 54.9694 72.7112 54.2595 73.1276 53.1522C73.5441 52.0448 73.2412 50.8239 72.361 50.0383L68.4142 46.508V38.6524C68.4142 37.6964 67.6381 36.9203 66.6822 36.9203H62.7828C61.8269 36.9203 61.0507 37.6964 61.0507 38.6524V39.4947L60.6438 39.6746L57.9747 37.3084C55.9588 35.5291 52.9301 35.5291 50.9141 37.3084L48.7657 39.2108C48.6237 39.3338 48.5385 39.5136 48.5291 39.6935C48.5196 39.8828 48.5764 40.0626 48.7089 40.2046C48.8319 40.3465 49.0023 40.4317 49.1916 40.4412C49.3809 40.4507 49.5607 40.3939 49.7027 40.2614L51.8511 38.359C53.3276 37.0528 55.5518 37.0528 57.0283 38.359L59.5837 40.621C60.0948 41.0753 60.8141 41.1889 61.4388 40.9049C62.0635 40.621 62.461 40.0153 62.461 39.3244V38.6334C62.461 38.4631 62.603 38.3211 62.7733 38.3211H66.6727C66.8431 38.3211 66.9851 38.4631 66.9851 38.6334V46.3849C66.9851 46.8771 67.1933 47.3503 67.5719 47.6816L71.4145 51.0889C71.954 51.5621 71.9635 52.1963 71.7931 52.6316C71.6322 53.067 71.1968 53.5308 70.487 53.5308H68.7928C68.3291 53.5308 67.8937 53.7106 67.5719 54.0324C67.2406 54.3636 67.0608 54.7895 67.0608 55.2533V69.7058C67.0608 69.8761 66.9188 70.0181 66.7485 70.0181H59.5648C59.3945 70.0181 59.2525 69.8761 59.2525 69.7058V59.9762C59.2525 59.0203 58.4764 58.2441 57.5205 58.2441H50.4977C49.5418 58.2441 48.7657 59.0203 48.7657 59.9762V69.7058C48.7657 69.8761 48.6237 70.0181 48.4533 70.0181H41.7145C41.5442 70.0181 41.4022 69.8761 41.4022 69.7058V55.2533C41.4022 54.7895 41.2224 54.3542 40.8911 54.0324C40.5409 53.6822 40.1056 53.5024 39.6796 53.5213H38.4209C37.5217 53.5213 37.1905 52.8304 37.1147 52.6222C37.0296 52.4139 36.8213 51.6757 37.4933 51.0794L45.1786 44.2649C45.3206 44.1418 45.4057 43.962 45.4152 43.7822C45.4247 43.5929 45.3679 43.4131 45.2354 43.2711C45.1123 43.1291 44.9325 43.044 44.7432 43.0345C44.5729 43.025 44.3741 43.0818 44.2321 43.2143L36.5469 50.0289C35.6572 50.8144 35.3638 52.0353 35.7802 53.1427C36.1967 54.2501 37.2378 54.9599 38.4114 54.9599H39.7553L39.9636 55.1681V69.7153C39.9636 70.6712 40.7397 71.4473 41.6956 71.4473H48.4344C49.3903 71.4473 50.1664 70.6712 50.1664 69.7153V59.9856C50.1664 59.8152 50.3084 59.6733 50.4788 59.6733L50.4977 59.6828Z" fill="#231F20" stroke="black" stroke-width="0.7"/>
<path d="M56.3468 37.3846C55.9588 37.3846 55.637 37.0723 55.637 36.6748C55.618 34.0531 55.0596 31.1191 54.0091 28.1756C52.4569 23.8124 50.0244 20.0928 47.5068 18.1999C47.1945 17.9633 47.1283 17.5184 47.3649 17.2061C47.6015 16.8937 48.0464 16.8275 48.3587 17.0641C51.094 19.1085 53.7062 23.0836 55.353 27.6929C56.4604 30.7878 57.0472 33.8827 57.0661 36.6653C57.0661 37.0534 56.7538 37.3752 56.3563 37.3752L56.3468 37.3846Z" fill="#010101" stroke="black" stroke-width="0.7"/>
<path d="M56.3572 37.6223C55.8367 37.6223 55.4108 37.1963 55.4108 36.6758C55.3918 34.0825 54.8334 31.1674 53.7923 28.2523C52.2496 23.9364 49.8456 20.2452 47.3658 18.3901C46.9494 18.0778 46.8642 17.4815 47.1766 17.0651C47.328 16.8663 47.5457 16.7338 47.8012 16.696C48.0568 16.6581 48.3029 16.7244 48.5016 16.8758C51.2653 18.9486 53.9154 22.9615 55.5717 27.6181C56.6885 30.732 57.2848 33.8648 57.2942 36.6663C57.2942 36.9219 57.1996 37.1585 57.0198 37.3383C56.8399 37.5182 56.6033 37.6223 56.3478 37.6223H56.3572ZM47.9337 17.1597C47.9337 17.1597 47.8864 17.1597 47.8675 17.1597C47.7444 17.1787 47.6309 17.2449 47.5551 17.349C47.3942 17.5573 47.4416 17.8601 47.6498 18.0116C50.2052 19.9234 52.666 23.6903 54.2372 28.0914C55.2972 31.0633 55.8651 34.0257 55.8745 36.6758C55.8745 36.9313 56.0922 37.149 56.3478 37.149C56.4708 37.149 56.5938 37.1017 56.679 37.0071C56.7642 36.9124 56.821 36.7988 56.8115 36.6758C56.7926 33.9216 56.2058 30.8456 55.1174 27.7791C53.4895 23.2076 50.9056 19.2798 48.2082 17.2544C48.123 17.1881 48.0284 17.1597 47.9243 17.1597H47.9337Z" fill="#231F20" stroke="black" stroke-width="0.7"/>
<path d="M52.1404 44.8466C48.8372 44.8466 44.8526 40.9851 42.1836 34.9751C41.8523 34.2368 41.5495 33.4797 41.2845 32.7225C39.9216 28.8988 39.3347 25.0467 39.6565 21.895C39.8269 20.2481 40.2244 18.8852 40.8491 17.8346C40.9532 17.6548 41.0289 17.4939 41.1046 17.3425C41.3034 16.9166 41.54 16.4244 42.1363 16.0837C42.477 15.8849 42.9124 16.008 43.1016 16.3487C43.2909 16.6894 43.1774 17.1248 42.8366 17.3141C42.6379 17.4277 42.5716 17.5602 42.3918 17.9388C42.3066 18.1281 42.2025 18.3363 42.0795 18.554C41.5684 19.4152 41.2182 20.6172 41.0762 22.0275C40.7828 24.9804 41.3318 28.6054 42.6284 32.2398C42.884 32.9591 43.1774 33.6879 43.4897 34.3883C46.1303 40.3321 50.3042 44.2315 52.9922 43.2755C54.3172 42.8023 54.9608 41.3164 55.2637 40.1428C55.3678 39.7642 55.7559 39.537 56.1344 39.6411C56.513 39.7452 56.7402 40.1333 56.6361 40.5119C56.0682 42.6604 54.9703 44.08 53.4654 44.6195C53.0395 44.7709 52.6042 44.8466 52.1499 44.8466H52.1404Z" fill="#010101" stroke="black" stroke-width="0.7"/>
<path d="M52.1394 45.082C48.7132 45.082 44.6245 41.0595 41.9649 35.0684C41.6337 34.3207 41.3308 33.5636 41.0563 32.8064C39.6745 28.9448 39.0972 25.0643 39.419 21.8748C39.5893 20.1995 40.0058 18.7987 40.6493 17.7103C40.744 17.5494 40.8197 17.3885 40.886 17.2465C41.0942 16.8017 41.3592 16.2527 42.0217 15.8742C42.2394 15.7511 42.495 15.7133 42.741 15.789C42.9871 15.8552 43.1859 16.0161 43.3089 16.2338C43.5644 16.6881 43.4036 17.2655 42.9493 17.521C42.8168 17.5967 42.7694 17.6819 42.5991 18.0416C42.5044 18.2403 42.4098 18.4486 42.2678 18.6757C41.7757 19.5086 41.4349 20.6728 41.293 22.0546C40.9996 24.9697 41.5485 28.5568 42.8357 32.1628C43.0912 32.8821 43.3846 33.6014 43.6875 34.2923C46.2335 40.0184 50.3601 43.9557 52.8966 43.0566C54.1175 42.6212 54.7233 41.2015 55.0167 40.0942C55.1492 39.5925 55.6697 39.2896 56.1713 39.4221C56.6824 39.5546 56.9758 40.0752 56.8433 40.5768C56.2565 42.801 55.1113 44.2775 53.5212 44.8454C53.0764 45.0063 52.6127 45.082 52.1205 45.082H52.1394ZM42.4855 16.2149C42.4098 16.2149 42.3246 16.2338 42.2489 16.2812C41.7094 16.584 41.5106 17.0194 41.3119 17.4358C41.2362 17.6062 41.151 17.7671 41.0469 17.9469C40.4411 18.9691 40.0436 20.3036 39.8827 21.9126C39.5704 25.0359 40.1477 28.8407 41.5012 32.636C41.7662 33.3837 42.069 34.1314 42.3908 34.8697C44.9747 40.6904 48.893 44.6087 52.1299 44.6087C52.5653 44.6087 52.9818 44.5331 53.3698 44.4005C54.799 43.8895 55.8401 42.5265 56.389 40.4633C56.4553 40.2077 56.3038 39.9522 56.0483 39.8859C55.8022 39.8291 55.5372 39.9711 55.4709 40.2266C55.1491 41.4476 54.4677 43.0093 53.048 43.5203C50.237 44.5141 45.9401 40.5579 43.2521 34.5006C42.9398 33.7907 42.6464 33.0619 42.3814 32.3332C41.0753 28.6609 40.5169 24.9981 40.8197 22.0167C40.9712 20.5592 41.3214 19.3288 41.8514 18.4391C41.9744 18.2309 42.069 18.0226 42.1542 17.8428C42.334 17.4737 42.4287 17.2655 42.7032 17.1141C42.9303 16.9815 43.0155 16.6976 42.883 16.4704C42.8168 16.3569 42.7221 16.2812 42.5991 16.2433C42.5612 16.2338 42.5139 16.2244 42.476 16.2244L42.4855 16.2149Z" fill="#231F20" stroke="black" stroke-width="0.7"/>
</svg>
