<svg width="80" height="80" viewBox="0 0 80 80" fill="none" xmlns="http://www.w3.org/2000/svg">
<path d="M21.7372 68.8707C21.0727 68.8707 20.4175 68.6929 19.8278 68.3279C18.7327 67.654 18.0776 66.4934 18.0776 65.2018V40.0619H10.1781L10.1406 33.9033L39.979 12.1328L50.9204 20.0417V15.6146H59.9337V26.818L70.0889 33.8845L70.0702 40.0899H62.1519V65.2111C62.1519 66.4934 61.4968 67.6633 60.4017 68.3372C59.3066 69.0111 57.9682 69.0579 56.8263 68.4776L40.1194 59.9604L23.4126 68.4776C22.8884 68.7491 22.3175 68.8801 21.7466 68.8801L21.7372 68.8707ZM12.4057 37.8249H20.3239V65.2111C20.3239 65.7165 20.5672 66.1564 20.9978 66.4185C21.4283 66.6806 21.9337 66.6993 22.383 66.4747L40.1101 57.4333L57.8372 66.4747C58.2864 66.7087 58.7918 66.6806 59.2224 66.4185C59.6529 66.1564 59.8963 65.7165 59.8963 65.2111V37.8436H67.8239V35.0545L57.6781 27.988V17.8609H53.1574V24.4313L39.979 14.9032L12.387 35.0358L12.4057 37.8156V37.8249Z" fill="#010101" stroke="black" stroke-width="0.7"/>
<path d="M58.4828 68.9906C57.8931 68.9906 57.3128 68.8502 56.7606 68.5788L40.1005 60.0896L23.4404 68.5788C22.2798 69.1685 20.8572 69.1123 19.7527 68.4384C18.6202 67.7458 17.9463 66.5384 17.9463 65.2187V40.1911H10.0468L10 33.8547L10.0468 33.8173L39.9601 12L50.7798 19.8246V15.5099H60.0271V26.7695L70.1823 33.836V33.9015L70.1635 40.2192H62.2453V65.2187C62.2453 66.5478 61.5714 67.7458 60.4389 68.4384C59.8305 68.8128 59.1473 69 58.464 69L58.4828 68.9906ZM10.2901 39.9478H18.1897V65.2093C18.1897 66.4542 18.8261 67.5867 19.8837 68.2325C20.9227 68.869 22.2611 68.9251 23.3468 68.3635L40.1099 59.8182L40.166 59.8463L56.8729 68.3635C57.9773 68.9251 59.2783 68.8783 60.3359 68.2325C61.3936 67.5867 62.03 66.4542 62.03 65.2093V39.9759H69.9483L69.967 33.9483L59.8118 26.8818V15.7345H51.0325V20.2739L39.9788 12.2808L10.2527 33.967L10.2901 39.9572V39.9478ZM21.737 66.7443C21.4655 66.7443 21.1847 66.6695 20.9414 66.5103C20.4734 66.2296 20.2113 65.7522 20.2113 65.2V37.9261H12.2931L12.2744 34.9685L12.3212 34.931L39.9788 14.7517L53.0448 24.1956V17.7374H57.7995V27.9207L67.9547 34.9872V37.9542H60.0177V65.2093C60.0177 65.7522 59.7463 66.2295 59.2877 66.5197C58.8197 66.8005 58.2768 66.8286 57.7901 66.5759L40.1099 57.5626L22.4296 66.5759C22.2049 66.6882 21.9709 66.7443 21.7276 66.7443H21.737ZM12.5271 37.7015H20.4453V65.2093C20.4453 65.668 20.67 66.0704 21.0631 66.3138C21.4562 66.5571 21.9148 66.5759 22.3266 66.3606L40.1099 57.3005L40.166 57.3286L57.8931 66.37C58.3049 66.5852 58.7635 66.5665 59.1566 66.3231C59.5497 66.0798 59.7744 65.6773 59.7744 65.2187V37.7296H67.702V35.1182L57.5561 28.0611V17.9902H53.2695V24.6729L53.0823 24.5419L39.9694 15.07L12.4897 35.1182L12.5084 37.7202L12.5271 37.7015Z" fill="#231F20" stroke="black" stroke-width="0.7"/>
<path d="M40.107 59.9786L39.5922 59.7071C39.4237 59.6229 23.1661 51.0214 27.7991 41.3998C28.6976 39.5372 29.9893 38.3017 31.6553 37.7402C34.8937 36.6357 38.4972 38.4141 40.107 39.2284C41.7075 38.4234 45.3203 36.6451 48.5587 37.7495C50.2247 38.3205 51.5257 39.5466 52.4149 41.4091C57.0385 51.0214 40.7902 59.6229 40.6218 59.7071L40.107 59.9786ZM33.8829 39.6402C33.3681 39.6402 32.8627 39.7057 32.3853 39.8742C31.2903 40.2486 30.4572 41.0628 29.8208 42.3825C26.5824 49.1121 37.5518 55.954 40.107 57.4328C42.6622 55.954 53.6223 49.1121 50.3932 42.3919C49.7568 41.0722 48.9237 40.2579 47.838 39.8835C45.442 39.0692 42.372 40.6229 41.0523 41.2781C40.8651 41.3717 40.706 41.456 40.5843 41.5121L40.107 41.7367L39.6297 41.5121C39.508 41.456 39.3582 41.3811 39.1711 41.2875C38.1228 40.754 35.9326 39.6589 33.8735 39.6589L33.8829 39.6402Z" fill="#010101" stroke="black" stroke-width="0.7"/>
<path d="M40.1073 60.108L39.5363 59.8084C39.3679 59.7242 23.0073 51.0853 27.6871 41.3513C28.595 39.4607 29.9147 38.2065 31.6181 37.6262C34.9127 36.503 38.5255 38.2907 40.1073 39.0863C41.6984 38.2907 45.3112 36.503 48.5964 37.6262C50.2905 38.2065 51.6102 39.4513 52.5275 41.3513C57.2073 51.0853 40.8467 59.7242 40.6876 59.8084L40.1166 60.108H40.1073ZM33.8925 37.5045C33.1625 37.5045 32.423 37.6075 31.7024 37.8508C30.0644 38.4124 28.7915 39.6198 27.9117 41.4542C23.3255 50.9823 39.4895 59.5183 39.658 59.6025L40.126 59.8459L40.594 59.6025C40.7531 59.5183 56.9171 50.9823 52.3309 41.4542C51.4511 39.6198 50.1688 38.4124 48.5403 37.8508C45.3112 36.7464 41.7171 38.5528 40.1822 39.3296L40.126 39.3577L40.0698 39.3296C38.8812 38.7306 36.4477 37.5045 33.9019 37.5045H33.8925ZM40.1073 57.5621L40.0511 57.5247C38.7314 56.7572 35.3713 54.6887 32.7132 51.9464C29.3344 48.4646 28.3235 45.2262 29.7181 42.3247C30.3639 40.9769 31.225 40.1346 32.3482 39.7508C32.8068 39.5917 33.3216 39.5168 33.8831 39.5168C35.9703 39.5168 38.1699 40.6306 39.2275 41.1641C39.4147 41.2577 39.5644 41.3326 39.6861 41.3887L40.1073 41.5853L40.5378 41.3887C40.6595 41.3326 40.8186 41.2577 41.0058 41.1641C42.3349 40.4996 45.4423 38.9272 47.8757 39.7602C48.9989 40.1439 49.86 40.9863 50.5058 42.3247C51.9004 45.2262 50.8896 48.4646 47.5107 51.9464C44.8526 54.6887 41.4925 56.7572 40.1728 57.5247L40.1166 57.5621H40.1073ZM33.8831 39.7508C33.3496 39.7508 32.8629 39.8257 32.423 39.9754C31.3654 40.3311 30.5511 41.136 29.9334 42.4277C28.5856 45.2355 29.5777 48.3804 32.8817 51.7873C35.4836 54.4641 38.7595 56.5045 40.1166 57.2907C41.4644 56.5045 44.7403 54.4641 47.3422 51.7873C50.6462 48.3804 51.6383 45.2355 50.2905 42.4277C49.6728 41.136 48.8585 40.3405 47.8009 39.9754C45.4516 39.1799 42.4097 40.7148 41.1087 41.37C40.9216 41.4636 40.7624 41.5478 40.6408 41.604L40.1166 41.8474L39.5925 41.604C39.4708 41.5478 39.3117 41.473 39.1245 41.3794C38.0856 40.8552 35.9142 39.7602 33.8831 39.7602V39.7508Z" fill="#231F20" stroke="black" stroke-width="0.7"/>
</svg>
